<?xml version="1.0" encoding="utf-8"?>
<!-- Generator: Adobe Illustrator 27.0.1, SVG Export Plug-In . SVG Version: 6.00 Build 0)  -->
<svg version="1.1" id="Capa_1" xmlns="http://www.w3.org/2000/svg" xmlns:xlink="http://www.w3.org/1999/xlink" x="0px" y="0px"
	 viewBox="0 0 619.2 604.8" style="enable-background:new 0 0 619.2 604.8;" xml:space="preserve">
<style type="text/css">
	.st0{opacity:0.75;}
	.st1{fill:#FFAD61;}
	.st2{fill:#FFFFFF;}
</style>
<g id="Capa_2_00000130619724006599016040000004439918084182031767_" class="st0">
	<path class="st1" d="M475.6,535.6c20.9-26.5,25.2-61.5,20.5-93.9s-17.9-63.2-29.4-93.9c-12-30.7-22.6-62.7-22.6-95.2
		c0-38.8,15.4-76.4,21.3-114.8S465,55,432.1,31.1c-38-27.3-92.6-16.6-138.3-3.4c-50.4,14.5-99.9,30.7-149,48.2
		c-40.5,14.5-83.2,32-108.4,64.9c-31.2,40.1-28.6,96-7.7,141.7s58,83.2,94.3,119.9c49.9,50.4,99.4,100.3,149.4,150.7
		c32,32.4,62.7,47.8,109.3,29.9C414.6,570.6,453.9,563.4,475.6,535.6z"/>
</g>
<path class="st2" d="M555.2,103.4h-384c-26.5,0-48,21.5-48,48v256c0,26.5,21.5,48,48,48h133.9l-4,32h-49.9c-8.8,0-16,7.2-16,16
	c0,8.8,7.2,16,16,16h224c8.8,0,16-7.2,16-16s-7.2-16-16-16h-49.9l-4-32h133.9c26.5,0,48-21.5,48-48v-256
	C603.2,124.9,581.7,103.4,555.2,103.4z M155.2,151.4c0-8.8,7.2-16,16-16h384c8.8,0,16,7.2,16,16v208h-416L155.2,151.4L155.2,151.4z
	 M347.2,407.4c0-8.8,7.2-16,16-16s16,7.2,16,16s-7.2,16-16,16S347.2,416.2,347.2,407.4z"/>
</svg>
