<?xml version="1.0" encoding="utf-8"?>
<!-- Generator: Adobe Illustrator 27.0.1, SVG Export Plug-In . SVG Version: 6.00 Build 0)  -->
<svg version="1.1" id="Capa_1" xmlns="http://www.w3.org/2000/svg" xmlns:xlink="http://www.w3.org/1999/xlink" x="0px" y="0px"
	 viewBox="0 0 484.8 576.5" style="enable-background:new 0 0 484.8 576.5;" xml:space="preserve">
<style type="text/css">
	.st0{opacity:0.75;}
	.st1{fill:#00BFF2;}
	.st2{fill:#FFFFFF;}
</style>
<g id="Capa_2_00000085941695877480520290000006393928573625685642_" class="st0">
	<path class="st1" d="M462.6,521.5c20.9-26.5,25.2-61.5,20.5-93.9s-17.9-63.2-29.5-93.9C441.7,303,431,271,431,238.5
		c0-38.8,15.4-76.4,21.3-114.8c6-38.4-0.4-82.8-33.3-106.7c-38-27.3-92.6-16.6-138.3-3.4c-50.4,14.5-99.9,30.7-149,48.2
		c-40.6,14.5-83.2,32-108.4,64.9c-31.2,40.1-28.6,96-7.7,141.7c20.9,45.7,58,83.2,94.3,119.9C160,438.7,209.5,488.7,259.4,539
		c32,32.4,62.7,47.8,109.3,29.9C401.5,556.5,440.8,549.3,462.6,521.5L462.6,521.5z"/>
</g>
<path class="st2" d="M376.6,39.5h-160c-35.3,0-64,28.7-64,64v384c0,35.3,28.7,64,64,64h160c35.3,0,64-28.7,64-64v-384
	C440.6,68.2,411.9,39.5,376.6,39.5L376.6,39.5z M408.6,487.5c0,17.6-14.4,32-32,32h-160c-17.6,0-32-14.4-32-32v-384
	c0-17.6,14.4-32,32-32h17c3.6,13.8,16.1,24,31,24h64c14.9,0,27.4-10.2,31-24h17c17.6,0,32,14.4,32,32V487.5z"/>
</svg>
