<?xml version="1.0" encoding="utf-8"?>
<!-- Generator: Adobe Illustrator 27.0.1, SVG Export Plug-In . SVG Version: 6.00 Build 0)  -->
<svg version="1.1" id="Capa_1" xmlns="http://www.w3.org/2000/svg" xmlns:xlink="http://www.w3.org/1999/xlink" x="0px" y="0px"
	 viewBox="0 0 619.2 619.2" style="enable-background:new 0 0 619.2 619.2;" xml:space="preserve">
<style type="text/css">
	.st0{opacity:0.75;}
	.st1{fill:#FFAD61;}
	.st2{fill:#FFFFFF;}
</style>
<g id="Capa_2_00000130619724006599016040000004439918084182031767_" class="st0">
	<path class="st1" d="M475.6,535.6c20.9-26.5,25.2-61.5,20.5-93.9s-17.9-63.2-29.4-93.9c-12-30.7-22.6-62.7-22.6-95.2
		c0-38.8,15.4-76.4,21.3-114.8S465,55,432.1,31.1c-38-27.3-92.6-16.6-138.3-3.4c-50.4,14.5-99.9,30.7-149,48.2
		c-40.5,14.5-83.2,32-108.4,64.9c-31.2,40.1-28.6,96-7.7,141.7s58,83.2,94.3,119.9c49.9,50.4,99.4,100.3,149.4,150.7
		c32,32.4,62.7,47.8,109.3,29.9C414.6,570.6,453.9,563.4,475.6,535.6z"/>
</g>
<path class="st2" d="M309.6,117.6c-105.9,0-192,86.1-192,192s86.1,192,192,192s192-86.1,192-192S415.5,117.6,309.6,117.6z
	 M309.6,469.6c-88.2,0-160-71.8-160-160s71.8-160,160-160s160,71.8,160,160S397.8,469.6,309.6,469.6z"/>
<path class="st2" d="M342.2,203.4c-8.1-3.9-20-6-32.8-5.8c-18,0.3-33.1,5.3-45,14.8c-23,18.5-24.7,40.4-24.8,42.8l28,1.3
	c0,0,0,0.1,0,0.3c0-0.5,1.2-12,14.4-22.6c7-5.6,16.1-8.4,27.8-8.6c9.3-0.1,16.9,1.5,20.3,3.1c21.5,10.2,21.5,23.9,21.5,28.4
	c0,18.1-10.9,26.2-30.2,39.2c-20.8,13.9-30.8,31.3-30.8,53.3c0,7.7,6.3,14,14,14s14-6.3,14-14c0-9.2,2.2-19.2,18.4-30
	c19-12.7,42.6-28.6,42.6-62.4C379.6,234,366.3,214.9,342.2,203.4L342.2,203.4z"/>
<circle class="st2" cx="303.6" cy="401.6" r="20"/>
</svg>
