<?xml version="1.0" encoding="utf-8"?>
<!-- Generator: Adobe Illustrator 27.0.1, SVG Export Plug-In . SVG Version: 6.00 Build 0)  -->
<svg version="1.1" id="Capa_1" xmlns="http://www.w3.org/2000/svg" xmlns:xlink="http://www.w3.org/1999/xlink" x="0px" y="0px"
	 viewBox="0 0 619.2 619.2" style="enable-background:new 0 0 619.2 619.2;" xml:space="preserve">
<style type="text/css">
	.st0{opacity:0.75;}
	.st1{fill:#00BFF2;}
	.st2{fill:#FFFFFF;}
</style>
<g id="Capa_2_00000130619724006599016040000004439918084182031767_" class="st0">
	<path class="st1" d="M475.6,535.6c20.9-26.5,25.2-61.5,20.5-93.9s-17.9-63.2-29.4-93.9c-12-30.7-22.6-62.7-22.6-95.2
		c0-38.8,15.4-76.4,21.3-114.8S465,55,432.1,31.1c-38-27.3-92.6-16.6-138.3-3.4c-50.4,14.5-99.9,30.7-149,48.2
		c-40.5,14.5-83.2,32-108.4,64.9c-31.2,40.1-28.6,96-7.7,141.7s58,83.2,94.3,119.9c49.9,50.4,99.4,100.3,149.4,150.7
		c32,32.4,62.7,47.8,109.3,29.9C414.6,570.6,453.9,563.4,475.6,535.6z"/>
</g>
<path class="st2" d="M309.6,277.6c-53.3,0-103.7-8.8-141.9-24.7c-42.6-17.8-66.1-43.1-66.1-71.3s23.5-53.6,66.1-71.3
	c38.2-15.9,88.6-24.7,141.9-24.7s103.8,8.8,141.9,24.7c42.6,17.8,66.1,43.1,66.1,71.3s-23.5,53.6-66.1,71.3
	C413.4,268.9,363,277.6,309.6,277.6z M309.6,117.6c-49.2,0-95.3,7.9-129.6,22.2c-29,12.1-46.4,27.7-46.4,41.8s17.3,29.7,46.4,41.8
	c34.4,14.3,80.4,22.2,129.6,22.2s95.3-7.9,129.6-22.2c29-12.1,46.4-27.7,46.4-41.8s-17.3-29.7-46.4-41.8
	C404.9,125.5,358.8,117.6,309.6,117.6z"/>
<path class="st2" d="M309.6,363.6c-53.3,0-103.7-8.8-141.9-24.7c-42.6-17.8-66.1-43.1-66.1-71.3c0-8.8,7.2-16,16-16s16,7.2,16,16
	c0,14.1,17.3,29.7,46.4,41.8c34.4,14.3,80.4,22.2,129.6,22.2s95.2-7.9,129.6-22.2c29.1-12.1,46.4-27.7,46.4-41.8c0-8.8,7.2-16,16-16
	s16,7.2,16,16c0,28.2-23.5,53.6-66.1,71.3C413.3,354.9,362.9,363.6,309.6,363.6z"/>
<path class="st2" d="M309.6,449.6c-53.3,0-103.7-8.8-141.9-24.7c-42.6-17.8-66.1-43.1-66.1-71.3c0-8.8,7.2-16,16-16s16,7.2,16,16
	c0,14.1,17.3,29.7,46.4,41.8c34.4,14.3,80.4,22.2,129.6,22.2s95.2-7.9,129.6-22.2c29.1-12.1,46.4-27.7,46.4-41.8c0-8.8,7.2-16,16-16
	s16,7.2,16,16c0,28.2-23.5,53.6-66.1,71.3C413.3,440.9,362.9,449.6,309.6,449.6z"/>
<path class="st2" d="M309.6,533.6c-53.3,0-103.7-8.7-141.9-24.4c-42.7-17.6-66.1-42.8-66.1-70.8V180.9c0-8.8,7.2-16,16-16
	s16,7.2,16,16v257.5c0,13.8,17.3,29.3,46.4,41.2c34.4,14.2,80.4,22,129.6,22s95.3-7.8,129.6-22c29-12,46.4-27.4,46.4-41.2V180.9
	c0-8.8,7.2-16,16-16s16,7.2,16,16v257.5c0,28.1-23.5,53.2-66.1,70.8C413.3,524.9,362.9,533.6,309.6,533.6z"/>
</svg>
