<?xml version="1.0" encoding="utf-8"?>
<!-- Generator: Adobe Illustrator 27.0.1, SVG Export Plug-In . SVG Version: 6.00 Build 0)  -->
<svg version="1.1" id="Capa_1" xmlns="http://www.w3.org/2000/svg" xmlns:xlink="http://www.w3.org/1999/xlink" x="0px" y="0px"
	 viewBox="0 0 484.8 576.5" style="enable-background:new 0 0 484.8 576.5;" xml:space="preserve">
<style type="text/css">
	.st0{opacity:0.75;}
	.st1{fill:#00BFF2;}
	.st2{fill:#FFFFFF;}
</style>
<g id="Capa_2_00000027573099106353885120000005344006092641031832_" class="st0">
	<path class="st1" d="M462.6,521.5c20.9-26.5,25.2-61.5,20.5-93.9s-17.9-63.2-29.5-93.9C441.7,303,431,271,431,238.5
		c0-38.8,15.4-76.4,21.3-114.8c6-38.4-0.4-82.8-33.3-106.7c-38-27.3-92.6-16.6-138.3-3.4c-50.4,14.5-99.9,30.7-149,48.2
		c-40.6,14.5-83.2,32-108.4,64.9c-31.2,40.1-28.6,96-7.7,141.7s58,83.2,94.3,119.9C160,438.7,209.5,488.7,259.4,539
		c32,32.4,62.7,47.8,109.3,29.9C401.5,556.5,440.8,549.3,462.6,521.5L462.6,521.5z"/>
</g>
<g>
	<path class="st2" d="M416.4,464c-8.4,0-16.1-3.5-21.1-9.9C392.5,450.5,311.6,352,240,352H80c-17.6,0-32-14.4-32-32v-96
		c0-17.6,14.4-32,32-32h160c72,0,153.2-99.1,155.4-101.8c7.3-9.3,19.8-12.6,31.7-8.5C439.6,86,448,97.4,448,110v324.4
		c0,12.6-8.3,23.6-21.1,27.9C423.4,463.5,419.9,464,416.4,464z M80,224v96h160c78,0,156.6,86.1,176,108.9V115.5
		C396.6,138.2,318,224,240,224H80z M407.9,100.2L407.9,100.2L407.9,100.2z"/>
	<path class="st2" d="M62.1,319.7c-1.2,0-2.4-0.2-3.7-0.7c-9.8-3.7-26.4-17.7-26.4-47s16.6-43.3,26.4-47c8.3-3.1,17.5,1.1,20.6,9.4
		c3,8-0.9,17-8.7,20.3c-1,0.6-6.3,4.2-6.3,17.3c0,8.6,2.3,13.1,4.2,15.4l1.4,1.6c4.8,5.5,8.5,15.8,4.3,21.9
		C70.6,315.8,67,319.7,62.1,319.7z M69.6,255L69.6,255L69.6,255z M69.7,255C69.6,255,69.6,255,69.7,255C69.6,255,69.6,255,69.7,255z
		"/>
	<path class="st2" d="M452.2,309.5l-8.4-30.9c0,0-0.2,0-0.4,0.1c4.6-1.6,4.6-5.4,4.6-6.7s0-5.1-4.6-6.7c0.3,0.1,0.4,0.1,0.4,0.1
		l8.4-30.9c9.6,2.6,27.8,13.8,27.8,37.4S461.8,306.8,452.2,309.5z"/>
	<path class="st2" d="M256,352c-8.8,0-16-7.2-16-16V208c0-8.8,7.2-16,16-16c8.8,0,16,7.2,16,16v128C272,344.8,264.8,352,256,352z"/>
	<path class="st2" d="M112,352c-8.8,0-16-7.2-16-16V208c0-8.8,7.2-16,16-16s16,7.2,16,16v128C128,344.8,120.8,352,112,352z"/>
	<path class="st2" d="M205,528L205,528h-53c-13.2,0-24-10.8-24-24V336c0-8.8,7.2-16,16-16s16,7.2,16,16v160h45c-2-6.4-4.9-13.5-8-21
		c-9.3-22.7-21-51-21-91c0-8.8,7.2-16,16-16h16v-16h-16c-8.8,0-16-7.2-16-16s7.2-16,16-16h16c17.6,0,32,14.4,32,32v16
		c0,17.4-13.9,31.6-31.2,32c2.5,25.5,10.5,45.1,17.8,62.8c3.4,8.2,6.6,15.9,9,23.7c1,3.1,1.4,6.3,1.4,9.5
		C237,513.7,222.6,528,205,528z"/>
</g>
</svg>
