<?xml version="1.0" encoding="utf-8"?>
<!-- Generator: Adobe Illustrator 27.0.1, SVG Export Plug-In . SVG Version: 6.00 Build 0)  -->
<svg version="1.1" id="Capa_1" xmlns="http://www.w3.org/2000/svg" xmlns:xlink="http://www.w3.org/1999/xlink" x="0px" y="0px"
	 viewBox="0 0 619.2 619.2" style="enable-background:new 0 0 619.2 619.2;" xml:space="preserve">
<style type="text/css">
	.st0{opacity:0.75;}
	.st1{fill:#FFAD61;}
	.st2{fill:#FFFFFF;}
</style>
<g id="Capa_2_00000130619724006599016040000004439918084182031767_" class="st0">
	<path class="st1" d="M475.6,535.6c20.9-26.5,25.2-61.5,20.5-93.9s-17.9-63.2-29.4-93.9c-12-30.7-22.6-62.7-22.6-95.2
		c0-38.8,15.4-76.4,21.3-114.8S465,55,432.1,31.1c-38-27.3-92.6-16.6-138.3-3.4c-50.4,14.5-99.9,30.7-149,48.2
		c-40.5,14.5-83.2,32-108.4,64.9c-31.2,40.1-28.6,96-7.7,141.7s58,83.2,94.3,119.9c49.9,50.4,99.4,100.3,149.4,150.7
		c32,32.4,62.7,47.8,109.3,29.9C414.6,570.6,453.9,563.4,475.6,535.6z"/>
</g>
<path class="st2" d="M309.6,533.6c-59.8,0-116.1-23.3-158.4-65.6s-65.6-98.6-65.6-158.4s23.3-116.1,65.6-158.4s98.6-65.6,158.4-65.6
	s116.1,23.3,158.4,65.6s65.6,98.6,65.6,158.4S510.3,425.7,468,468C425.7,510.3,369.4,533.6,309.6,533.6z M309.6,117.6
	c-105.9,0-192,86.1-192,192s86.1,192,192,192s192-86.1,192-192S415.5,117.6,309.6,117.6z"/>
<path class="st2" d="M309.6,533.6c-69.7,0-128.7-102.6-128.7-224s58.9-224,128.7-224s128.7,102.6,128.7,224S379.3,533.6,309.6,533.6
	z M309.6,117.6c-22.2,0-45.5,19.2-64.1,52.7c-21,37.8-32.5,87.3-32.5,139.3s11.6,101.5,32.5,139.3c18.6,33.5,42,52.7,64.1,52.7
	s45.5-19.2,64.1-52.7c21-37.8,32.5-87.3,32.5-139.3c0-52.1-11.6-101.5-32.5-139.3C355.1,136.8,331.8,117.6,309.6,117.6z"/>
<path class="st2" d="M309.6,230.3c-54.1,0-105.3-16-147.9-46.3c-7.2-5.1-8.9-15.1-3.8-22.3c5.1-7.2,15.1-8.9,22.3-3.8
	c37.2,26.4,82,40.4,129.4,40.4s92.2-14,129.4-40.4c7.2-5.1,17.2-3.4,22.3,3.8c5.1,7.2,3.4,17.2-3.8,22.3
	C414.9,214.3,363.7,230.3,309.6,230.3z"/>
<path class="st2" d="M170.9,464.3c-5,0-9.9-2.3-13.1-6.7c-5.1-7.2-3.4-17.2,3.8-22.3C204.3,405,255.4,389,309.5,389
	s105.3,16,147.9,46.3c7.2,5.1,8.9,15.1,3.8,22.3c-5.1,7.2-15.1,8.9-22.3,3.8c-37.2-26.4-82-40.4-129.4-40.4s-92.2,14-129.4,40.4
	C177.4,463.3,174.1,464.3,170.9,464.3z"/>
<rect x="293.6" y="101.6" class="st2" width="32" height="416"/>
<rect x="101.6" y="293.6" class="st2" width="416" height="32"/>
</svg>
