<?xml version="1.0" encoding="utf-8"?>
<!-- Generator: Adobe Illustrator 27.0.0, SVG Export Plug-In . SVG Version: 6.00 Build 0)  -->
<svg version="1.1" xmlns="http://www.w3.org/2000/svg" xmlns:xlink="http://www.w3.org/1999/xlink" x="0px" y="0px"
	 viewBox="0 0 329.9 98.9" style="enable-background:new 0 0 329.9 98.9;" xml:space="preserve">
<style type="text/css">
	.st0{fill:#131F28;}
	.st1{font-family:'Avenir-Roman';}
	.st2{font-size:23px;}
	.st3{fill:url(#SVGID_1_);}
	.st4{fill:url(#SVGID_00000021084929423390501270000007444031245621624729_);}
	.st5{fill:url(#SVGID_00000149372700324440108540000004885106638275302032_);}
	.st6{fill:url(#SVGID_00000125589732774656878770000003190510084440342197_);}
	.st7{fill:url(#SVGID_00000164502487258366545510000003165585786164170121_);}
	.st8{fill:url(#SVGID_00000119117664003472578170000010403983170722957955_);}
	.st9{fill:url(#SVGID_00000092437427546826081860000015312441397469335198_);}
	.st10{fill:url(#SVGID_00000080912741321046146050000007677564526016073894_);}
	.st11{fill:url(#SVGID_00000133488653385908284600000008605470023954542997_);}
	.st12{fill:url(#SVGID_00000178175930350932220530000008597003449123572896_);}
	.st13{fill:url(#SVGID_00000019674143032352888720000000599014155468212143_);}
	.st14{fill:url(#SVGID_00000011025962496461077820000011188413443286977168_);}
	.st15{fill:url(#SVGID_00000065797219618169463020000003713561004167867279_);}
	.st16{fill:#A9D0FF;}
	.st17{fill:url(#SVGID_00000021110496737705860090000014707990515362168215_);}
	.st18{font-size:12px;}
	.st19{fill:#6CA0E8;}
</style>
<g id="fondo">
	<rect class="st0" width="329.9" height="98.9"/>
</g>
<g id="Capa_1">
	<g>
		<text transform="matrix(1.1986 0 0 1 82.1621 47.0714)" class="st1 st2">WE REPAIR HOUSE</text>
		<g>
			<linearGradient id="SVGID_1_" gradientUnits="userSpaceOnUse" x1="82.3276" y1="38.9292" x2="326.1621" y2="38.9292">
				<stop  offset="0" style="stop-color:#999999"/>
				<stop  offset="4.099130e-02" style="stop-color:#A1A1A1"/>
				<stop  offset="0.1029" style="stop-color:#B5B5B5"/>
				<stop  offset="0.1775" style="stop-color:#D7D7D7"/>
				<stop  offset="0.2509" style="stop-color:#FFFFFF"/>
				<stop  offset="0.8585" style="stop-color:#FFFFFF"/>
				<stop  offset="1" style="stop-color:#999999"/>
			</linearGradient>
			<path class="st3" d="M82.3,30.8h2.6l4.4,13.5h0.1l4.8-13.5h2.6l4.8,13.5h0.1l4.5-13.5h2.4l-5.7,16.3h-2.5l-4.8-13.8h-0.1
				l-4.9,13.8H88L82.3,30.8z"/>
			
				<linearGradient id="SVGID_00000142155985855333317230000016201601661385596596_" gradientUnits="userSpaceOnUse" x1="82.3276" y1="38.9292" x2="326.1621" y2="38.9292">
				<stop  offset="0" style="stop-color:#999999"/>
				<stop  offset="4.099130e-02" style="stop-color:#A1A1A1"/>
				<stop  offset="0.1029" style="stop-color:#B5B5B5"/>
				<stop  offset="0.1775" style="stop-color:#D7D7D7"/>
				<stop  offset="0.2509" style="stop-color:#FFFFFF"/>
				<stop  offset="0.8585" style="stop-color:#FFFFFF"/>
				<stop  offset="1" style="stop-color:#999999"/>
			</linearGradient>
			<path style="fill:url(#SVGID_00000142155985855333317230000016201601661385596596_);" d="M111.1,30.8h12.3v1.8h-10v5.1h9.3v1.8
				h-9.3v5.8h10.4v1.8h-12.8V30.8z"/>
			
				<linearGradient id="SVGID_00000082326066583260205320000016470945336267580330_" gradientUnits="userSpaceOnUse" x1="82.3276" y1="38.9292" x2="326.1621" y2="38.9292">
				<stop  offset="0" style="stop-color:#999999"/>
				<stop  offset="4.099130e-02" style="stop-color:#A1A1A1"/>
				<stop  offset="0.1029" style="stop-color:#B5B5B5"/>
				<stop  offset="0.1775" style="stop-color:#D7D7D7"/>
				<stop  offset="0.2509" style="stop-color:#FFFFFF"/>
				<stop  offset="0.8585" style="stop-color:#FFFFFF"/>
				<stop  offset="1" style="stop-color:#999999"/>
			</linearGradient>
			<path style="fill:url(#SVGID_00000082326066583260205320000016470945336267580330_);" d="M135.1,30.8h5c0.9,0,1.9,0,2.8,0.1
				c0.9,0.1,1.8,0.3,2.5,0.6c0.7,0.3,1.3,0.8,1.8,1.3c0.5,0.6,0.7,1.4,0.7,2.4c0,1.2-0.4,2.2-1.3,2.9c-0.9,0.7-2.1,1.2-3.6,1.4
				l5.5,7.5h-2.8l-5.3-7.3h-3v7.3h-2.3V30.8z M137.5,38h2.1c0.6,0,1.3,0,2,0c0.7,0,1.3-0.1,1.9-0.3c0.6-0.2,1.1-0.4,1.4-0.8
				c0.4-0.4,0.6-0.9,0.6-1.6c0-0.6-0.1-1.1-0.4-1.4c-0.3-0.4-0.6-0.6-1.1-0.8c-0.5-0.2-1-0.3-1.5-0.4c-0.6-0.1-1.1-0.1-1.7-0.1h-3.3
				V38z"/>
			
				<linearGradient id="SVGID_00000057869861006827301100000016619773227354754447_" gradientUnits="userSpaceOnUse" x1="82.3276" y1="38.9292" x2="326.1621" y2="38.9292">
				<stop  offset="0" style="stop-color:#999999"/>
				<stop  offset="4.099130e-02" style="stop-color:#A1A1A1"/>
				<stop  offset="0.1029" style="stop-color:#B5B5B5"/>
				<stop  offset="0.1775" style="stop-color:#D7D7D7"/>
				<stop  offset="0.2509" style="stop-color:#FFFFFF"/>
				<stop  offset="0.8585" style="stop-color:#FFFFFF"/>
				<stop  offset="1" style="stop-color:#999999"/>
			</linearGradient>
			<path style="fill:url(#SVGID_00000057869861006827301100000016619773227354754447_);" d="M152,30.8h12.3v1.8h-10v5.1h9.3v1.8
				h-9.3v5.8h10.4v1.8H152V30.8z"/>
			
				<linearGradient id="SVGID_00000144337143936454889480000012352145741195818117_" gradientUnits="userSpaceOnUse" x1="82.3276" y1="38.9292" x2="326.1621" y2="38.9292">
				<stop  offset="0" style="stop-color:#999999"/>
				<stop  offset="4.099130e-02" style="stop-color:#A1A1A1"/>
				<stop  offset="0.1029" style="stop-color:#B5B5B5"/>
				<stop  offset="0.1775" style="stop-color:#D7D7D7"/>
				<stop  offset="0.2509" style="stop-color:#FFFFFF"/>
				<stop  offset="0.8585" style="stop-color:#FFFFFF"/>
				<stop  offset="1" style="stop-color:#999999"/>
			</linearGradient>
			<path style="fill:url(#SVGID_00000144337143936454889480000012352145741195818117_);" d="M168.3,30.8h5.8c0.9,0,1.8,0.1,2.6,0.2
				c0.8,0.1,1.5,0.4,2.2,0.7c0.6,0.3,1.1,0.8,1.5,1.4c0.4,0.6,0.6,1.3,0.6,2.1c0,0.9-0.2,1.6-0.6,2.2c-0.4,0.6-0.9,1-1.6,1.4
				c-0.6,0.3-1.3,0.6-2.1,0.7c-0.8,0.1-1.5,0.2-2.2,0.2h-3.9v7.3h-2.3V30.8z M170.7,38h3.9c1.2,0,2.1-0.2,2.8-0.7
				c0.7-0.4,1.1-1.1,1.1-2c0-0.9-0.4-1.6-1.1-2c-0.7-0.4-1.7-0.7-2.8-0.7h-3.9V38z"/>
			
				<linearGradient id="SVGID_00000018946031237515064860000007947221719245444013_" gradientUnits="userSpaceOnUse" x1="82.3276" y1="38.9292" x2="326.1621" y2="38.9292">
				<stop  offset="0" style="stop-color:#999999"/>
				<stop  offset="4.099130e-02" style="stop-color:#A1A1A1"/>
				<stop  offset="0.1029" style="stop-color:#B5B5B5"/>
				<stop  offset="0.1775" style="stop-color:#D7D7D7"/>
				<stop  offset="0.2509" style="stop-color:#FFFFFF"/>
				<stop  offset="0.8585" style="stop-color:#FFFFFF"/>
				<stop  offset="1" style="stop-color:#999999"/>
			</linearGradient>
			<path style="fill:url(#SVGID_00000018946031237515064860000007947221719245444013_);" d="M191,30.8h2.2l8.3,16.3h-2.7l-2-4h-9.8
				l-2,4h-2.6L191,30.8z M192.1,33.3L192.1,33.3l-4.1,8h8L192.1,33.3z"/>
			
				<linearGradient id="SVGID_00000047741393428718154480000000147124473067528623_" gradientUnits="userSpaceOnUse" x1="82.3276" y1="38.9292" x2="326.1621" y2="38.9292">
				<stop  offset="0" style="stop-color:#999999"/>
				<stop  offset="4.099130e-02" style="stop-color:#A1A1A1"/>
				<stop  offset="0.1029" style="stop-color:#B5B5B5"/>
				<stop  offset="0.1775" style="stop-color:#D7D7D7"/>
				<stop  offset="0.2509" style="stop-color:#FFFFFF"/>
				<stop  offset="0.8585" style="stop-color:#FFFFFF"/>
				<stop  offset="1" style="stop-color:#999999"/>
			</linearGradient>
			<path style="fill:url(#SVGID_00000047741393428718154480000000147124473067528623_);" d="M204.1,30.8h2.3v16.3h-2.3V30.8z"/>
			
				<linearGradient id="SVGID_00000075129826601677228680000015204788992336489388_" gradientUnits="userSpaceOnUse" x1="82.3276" y1="38.9292" x2="326.1621" y2="38.9292">
				<stop  offset="0" style="stop-color:#999999"/>
				<stop  offset="4.099130e-02" style="stop-color:#A1A1A1"/>
				<stop  offset="0.1029" style="stop-color:#B5B5B5"/>
				<stop  offset="0.1775" style="stop-color:#D7D7D7"/>
				<stop  offset="0.2509" style="stop-color:#FFFFFF"/>
				<stop  offset="0.8585" style="stop-color:#FFFFFF"/>
				<stop  offset="1" style="stop-color:#999999"/>
			</linearGradient>
			<path style="fill:url(#SVGID_00000075129826601677228680000015204788992336489388_);" d="M211.3,30.8h5c0.9,0,1.9,0,2.8,0.1
				c0.9,0.1,1.8,0.3,2.5,0.6c0.7,0.3,1.3,0.8,1.8,1.3c0.5,0.6,0.7,1.4,0.7,2.4c0,1.2-0.4,2.2-1.3,2.9c-0.9,0.7-2.1,1.2-3.6,1.4
				l5.5,7.5h-2.8l-5.3-7.3h-3v7.3h-2.3V30.8z M213.6,38h2.1c0.6,0,1.3,0,2,0c0.7,0,1.3-0.1,1.9-0.3c0.6-0.2,1.1-0.4,1.4-0.8
				c0.4-0.4,0.6-0.9,0.6-1.6c0-0.6-0.1-1.1-0.4-1.4c-0.3-0.4-0.6-0.6-1.1-0.8c-0.5-0.2-1-0.3-1.5-0.4c-0.6-0.1-1.1-0.1-1.7-0.1h-3.3
				V38z"/>
			
				<linearGradient id="SVGID_00000165233802999119760120000004699608770022513593_" gradientUnits="userSpaceOnUse" x1="82.3276" y1="38.9292" x2="326.1621" y2="38.9292">
				<stop  offset="0" style="stop-color:#999999"/>
				<stop  offset="4.099130e-02" style="stop-color:#A1A1A1"/>
				<stop  offset="0.1029" style="stop-color:#B5B5B5"/>
				<stop  offset="0.1775" style="stop-color:#D7D7D7"/>
				<stop  offset="0.2509" style="stop-color:#FFFFFF"/>
				<stop  offset="0.8585" style="stop-color:#FFFFFF"/>
				<stop  offset="1" style="stop-color:#999999"/>
			</linearGradient>
			<path style="fill:url(#SVGID_00000165233802999119760120000004699608770022513593_);" d="M235.8,30.8h2.3v6.9h10.4v-6.9h2.3v16.3
				h-2.3v-7.6h-10.4v7.6h-2.3V30.8z"/>
			
				<linearGradient id="SVGID_00000087372458419998516800000004679136436761667474_" gradientUnits="userSpaceOnUse" x1="82.3276" y1="38.9292" x2="326.1621" y2="38.9292">
				<stop  offset="0" style="stop-color:#999999"/>
				<stop  offset="4.099130e-02" style="stop-color:#A1A1A1"/>
				<stop  offset="0.1029" style="stop-color:#B5B5B5"/>
				<stop  offset="0.1775" style="stop-color:#D7D7D7"/>
				<stop  offset="0.2509" style="stop-color:#FFFFFF"/>
				<stop  offset="0.8585" style="stop-color:#FFFFFF"/>
				<stop  offset="1" style="stop-color:#999999"/>
			</linearGradient>
			<path style="fill:url(#SVGID_00000087372458419998516800000004679136436761667474_);" d="M264.7,47.5c-1.5,0-2.9-0.2-4.1-0.6
				c-1.2-0.4-2.3-1-3.2-1.8c-0.9-0.8-1.6-1.7-2.1-2.7c-0.5-1-0.8-2.2-0.8-3.4c0-1.2,0.3-2.4,0.8-3.4c0.5-1,1.2-2,2.1-2.7
				c0.9-0.8,2-1.4,3.2-1.8c1.2-0.4,2.6-0.6,4.1-0.6c1.5,0,2.9,0.2,4.1,0.6c1.2,0.4,2.3,1,3.2,1.8c0.9,0.8,1.6,1.7,2.1,2.7
				c0.5,1.1,0.8,2.2,0.8,3.4c0,1.2-0.3,2.4-0.8,3.4c-0.5,1.1-1.2,2-2.1,2.7c-0.9,0.8-2,1.4-3.2,1.8
				C267.6,47.3,266.2,47.5,264.7,47.5z M264.7,45.7c1.1,0,2.2-0.2,3.1-0.5c0.9-0.4,1.8-0.8,2.4-1.4s1.2-1.3,1.6-2.2s0.6-1.7,0.6-2.6
				c0-0.9-0.2-1.8-0.6-2.6s-0.9-1.5-1.6-2.2s-1.5-1.1-2.4-1.4c-0.9-0.4-2-0.5-3.1-0.5c-1.1,0-2.2,0.2-3.1,0.5
				c-0.9,0.4-1.8,0.8-2.4,1.4s-1.2,1.3-1.6,2.2S257,38,257,38.9c0,0.9,0.2,1.8,0.6,2.6s0.9,1.5,1.6,2.2s1.5,1.1,2.4,1.4
				C262.6,45.5,263.6,45.7,264.7,45.7z"/>
			
				<linearGradient id="SVGID_00000008132826601673369460000011237983982594737841_" gradientUnits="userSpaceOnUse" x1="82.3276" y1="38.9292" x2="326.1621" y2="38.9292">
				<stop  offset="0" style="stop-color:#999999"/>
				<stop  offset="4.099130e-02" style="stop-color:#A1A1A1"/>
				<stop  offset="0.1029" style="stop-color:#B5B5B5"/>
				<stop  offset="0.1775" style="stop-color:#D7D7D7"/>
				<stop  offset="0.2509" style="stop-color:#FFFFFF"/>
				<stop  offset="0.8585" style="stop-color:#FFFFFF"/>
				<stop  offset="1" style="stop-color:#999999"/>
			</linearGradient>
			<path style="fill:url(#SVGID_00000008132826601673369460000011237983982594737841_);" d="M293.3,40.9c0,0.9-0.1,1.7-0.4,2.5
				c-0.3,0.8-0.7,1.5-1.3,2.1c-0.6,0.6-1.3,1.1-2.3,1.4c-0.9,0.4-2.1,0.5-3.4,0.5c-1.3,0-2.5-0.2-3.4-0.5c-0.9-0.4-1.7-0.8-2.3-1.4
				c-0.6-0.6-1-1.3-1.3-2.1c-0.3-0.8-0.4-1.6-0.4-2.5V30.8h2.3v9.8c0,0.7,0.1,1.3,0.2,1.9c0.2,0.6,0.4,1.2,0.8,1.6s0.9,0.9,1.5,1.1
				c0.6,0.3,1.5,0.4,2.4,0.4c1,0,1.8-0.1,2.4-0.4c0.6-0.3,1.2-0.7,1.5-1.1s0.7-1,0.8-1.6c0.2-0.6,0.2-1.2,0.2-1.9v-9.8h2.3V40.9z"/>
			
				<linearGradient id="SVGID_00000119804750835656999930000014884266508854548623_" gradientUnits="userSpaceOnUse" x1="82.3276" y1="38.9292" x2="326.1621" y2="38.9292">
				<stop  offset="0" style="stop-color:#999999"/>
				<stop  offset="4.099130e-02" style="stop-color:#A1A1A1"/>
				<stop  offset="0.1029" style="stop-color:#B5B5B5"/>
				<stop  offset="0.1775" style="stop-color:#D7D7D7"/>
				<stop  offset="0.2509" style="stop-color:#FFFFFF"/>
				<stop  offset="0.8585" style="stop-color:#FFFFFF"/>
				<stop  offset="1" style="stop-color:#999999"/>
			</linearGradient>
			<path style="fill:url(#SVGID_00000119804750835656999930000014884266508854548623_);" d="M307.3,33.7c-0.4-0.5-0.9-0.9-1.5-1.1
				s-1.3-0.4-2-0.4c-0.5,0-1,0.1-1.5,0.2c-0.5,0.1-0.9,0.3-1.3,0.5c-0.4,0.2-0.7,0.5-1,0.9c-0.2,0.4-0.4,0.8-0.4,1.2
				c0,0.4,0.1,0.7,0.2,1s0.4,0.5,0.7,0.8s0.7,0.4,1.3,0.6s1.2,0.4,2,0.6c0.8,0.2,1.5,0.4,2.2,0.6c0.7,0.2,1.3,0.5,1.9,0.9
				c0.5,0.4,1,0.8,1.3,1.3c0.3,0.5,0.5,1.2,0.5,2c0,0.8-0.2,1.5-0.6,2.1s-0.9,1.1-1.5,1.5c-0.6,0.4-1.4,0.7-2.2,0.9
				s-1.7,0.3-2.6,0.3c-0.6,0-1.1,0-1.7-0.1c-0.6-0.1-1.1-0.2-1.6-0.4s-1-0.4-1.5-0.7c-0.5-0.3-0.9-0.6-1.2-1l2-1.4
				c0.4,0.6,1,1.1,1.8,1.4c0.8,0.3,1.6,0.5,2.4,0.5c0.5,0,1-0.1,1.5-0.2c0.5-0.1,1-0.3,1.4-0.5s0.7-0.5,1-0.9
				c0.3-0.4,0.4-0.8,0.4-1.2c0-0.5-0.1-0.9-0.3-1.2c-0.2-0.3-0.5-0.6-0.9-0.8s-1-0.4-1.6-0.6c-0.6-0.2-1.4-0.4-2.3-0.6
				c-0.7-0.2-1.3-0.4-1.9-0.6c-0.6-0.2-1.1-0.5-1.5-0.9c-0.4-0.3-0.8-0.8-1-1.2c-0.2-0.5-0.4-1.1-0.4-1.7c0-0.8,0.2-1.5,0.6-2
				c0.4-0.6,0.9-1.1,1.5-1.5c0.6-0.4,1.3-0.7,2.1-0.9s1.6-0.3,2.5-0.3c1.1,0,2.1,0.1,3,0.4c0.9,0.3,1.7,0.8,2.4,1.5L307.3,33.7z"/>
			
				<linearGradient id="SVGID_00000181779707158487452130000016054147268661951133_" gradientUnits="userSpaceOnUse" x1="82.3276" y1="38.9292" x2="326.1621" y2="38.9292">
				<stop  offset="0" style="stop-color:#999999"/>
				<stop  offset="4.099130e-02" style="stop-color:#A1A1A1"/>
				<stop  offset="0.1029" style="stop-color:#B5B5B5"/>
				<stop  offset="0.1775" style="stop-color:#D7D7D7"/>
				<stop  offset="0.2509" style="stop-color:#FFFFFF"/>
				<stop  offset="0.8585" style="stop-color:#FFFFFF"/>
				<stop  offset="1" style="stop-color:#999999"/>
			</linearGradient>
			<path style="fill:url(#SVGID_00000181779707158487452130000016054147268661951133_);" d="M313.4,30.8h12.3v1.8h-10v5.1h9.3v1.8
				h-9.3v5.8h10.4v1.8h-12.8V30.8z"/>
		</g>
	</g>
	<g>
		<path class="st16" d="M72.3,21.1h-4.6v-6.8c0-2.4-1.8-4.4-4-4.4H11.2c-2.2,0-4,2-4,4.4v2.8H5.8c-0.4,0-0.8,0.4-0.8,0.9v8.4
			c0,0.5,0.3,0.9,0.8,0.9h1.4V30c0,2.4,1.8,4.4,4,4.4h52.6c2.2,0,4-2,4-4.4v-6.8h4.4v15L38,44.2c-0.8,0.1-1.4,0.9-1.4,1.9v6.3h-3.4
			c-1.4,0-2.5,1.3-2.5,2.8v26.2c0,1.5,1.1,2.8,2.5,2.8h8.8c1.4,0,2.5-1.3,2.5-2.8V55.2c0-1.5-1.1-2.8-2.5-2.8h-3.4v-6.1l34.1-6.1
			c0.8-0.1,1.4-0.9,1.4-1.9V23C74,21.9,73.2,21.1,72.3,21.1z M65.8,30c0,1.2-0.9,2.3-2,2.3H11.2c-1.1,0-2-1-2-2.3V14.3
			c0-1.2,0.9-2.3,2-2.3h52.6c1.1,0,2,1,2,2.3L65.8,30L65.8,30z M41.9,82.1h-8.8c-0.3,0-0.6-0.3-0.6-0.7v-5.2h10v5.2
			C42.5,81.8,42.2,82.1,41.9,82.1z M42.5,55.2v18.9h-10V55.2c0-0.4,0.3-0.7,0.6-0.7h8.8C42.2,54.5,42.5,54.8,42.5,55.2z"/>
		
			<linearGradient id="SVGID_00000160156048687472205320000010292719248181506960_" gradientUnits="userSpaceOnUse" x1="5" y1="47.0713" x2="74.0147" y2="47.0713">
			<stop  offset="0" style="stop-color:#999999"/>
			<stop  offset="3.787142e-02" style="stop-color:#A1A1A1"/>
			<stop  offset="9.504442e-02" style="stop-color:#B5B5B5"/>
			<stop  offset="0.164" style="stop-color:#D7D7D7"/>
			<stop  offset="0.2318" style="stop-color:#FFFFFF"/>
			<stop  offset="0.8585" style="stop-color:#FFFFFF"/>
			<stop  offset="1" style="stop-color:#999999"/>
		</linearGradient>
		<path style="fill:url(#SVGID_00000160156048687472205320000010292719248181506960_);" d="M72.3,21.1h-4.6v-6.8
			c0-2.4-1.8-4.4-4-4.4H11.2c-2.2,0-4,2-4,4.4v2.8H5.8c-0.4,0-0.8,0.4-0.8,0.9v8.4c0,0.5,0.3,0.9,0.8,0.9h1.4V30
			c0,2.4,1.8,4.4,4,4.4h52.6c2.2,0,4-2,4-4.4v-6.8h4.4v15L38,44.2c-0.8,0.1-1.4,0.9-1.4,1.9v6.3h-3.4c-1.4,0-2.5,1.3-2.5,2.8v26.2
			c0,1.5,1.1,2.8,2.5,2.8h8.8c1.4,0,2.5-1.3,2.5-2.8V55.2c0-1.5-1.1-2.8-2.5-2.8h-3.4v-6.1l34.1-6.1c0.8-0.1,1.4-0.9,1.4-1.9V23
			C74,21.9,73.2,21.1,72.3,21.1z M65.8,30c0,1.2-0.9,2.3-2,2.3H11.2c-1.1,0-2-1-2-2.3V14.3c0-1.2,0.9-2.3,2-2.3h52.6
			c1.1,0,2,1,2,2.3L65.8,30L65.8,30z M41.9,82.1h-8.8c-0.3,0-0.6-0.3-0.6-0.7v-5.2h10v5.2C42.5,81.8,42.2,82.1,41.9,82.1z
			 M42.5,55.2v18.9h-10V55.2c0-0.4,0.3-0.7,0.6-0.7h8.8C42.2,54.5,42.5,54.8,42.5,55.2z"/>
	</g>
	<g>
		<text transform="matrix(1.1986 0 0 1 84.6825 68.0555)" class="st1 st18">WE REPAIR TO MAKE HAPPY</text>
		<text transform="matrix(1.1986 0 0 1 84.6825 68.0555)" class="st19 st1 st18">WE REPAIR TO MAKE HAPPY</text>
	</g>
</g>
</svg>
