<?xml version="1.0" encoding="UTF-8"?>
<svg id="Capa_2" data-name="Capa 2" xmlns="http://www.w3.org/2000/svg" xmlns:xlink="http://www.w3.org/1999/xlink" viewBox="0 0 295.52 49.47">
  <defs>
    <style>
      .cls-1 {
        fill: #a9d0ff;
      }

      .cls-2 {
        fill: #131f28;
      }

      .cls-3 {
        fill: url(#Degradado_sin_nombre_120);
      }

      .cls-4 {
        fill: url(#Degradado_sin_nombre_131);
      }

      .cls-5 {
        letter-spacing: -.07em;
      }

      .cls-6 {
        font-family: Avenir-Roman, Avenir;
        font-size: 23px;
      }

      .cls-7 {
        letter-spacing: 0em;
      }
    </style>
    <linearGradient id="Degradado_sin_nombre_131" data-name="Degradado sin nombre 131" x1="52.19" y1="24.08" x2="293.98" y2="24.08" gradientUnits="userSpaceOnUse">
      <stop offset="0" stop-color="#999"/>
      <stop offset=".04" stop-color="#a0a0a0"/>
      <stop offset=".1" stop-color="#b5b5b5"/>
      <stop offset=".18" stop-color="#d6d6d6"/>
      <stop offset=".25" stop-color="#fff"/>
      <stop offset=".86" stop-color="#fff"/>
      <stop offset="1" stop-color="#999"/>
    </linearGradient>
    <linearGradient id="Degradado_sin_nombre_120" data-name="Degradado sin nombre 120" x1="5" y1="25.6" x2="41.03" y2="25.6" gradientUnits="userSpaceOnUse">
      <stop offset="0" stop-color="#999"/>
      <stop offset=".04" stop-color="#a0a0a0"/>
      <stop offset=".1" stop-color="#b5b5b5"/>
      <stop offset=".16" stop-color="#d6d6d6"/>
      <stop offset=".23" stop-color="#fff"/>
      <stop offset=".86" stop-color="#fff"/>
      <stop offset="1" stop-color="#999"/>
    </linearGradient>
  </defs>
  <g id="Capa_1-2" data-name="Capa 1">
    <rect class="cls-2" width="295.52" height="49.47"/>
    <g>
      <text class="cls-6" transform="translate(52.02 32.22) scale(1.2 1)"><tspan x="0" y="0">WE RE</tspan><tspan class="cls-5" x="69.87" y="0">P</tspan><tspan class="cls-7" x="81.81" y="0">AIR HOUSE</tspan></text>
      <g>
        <path class="cls-4" d="M52.19,15.94h2.56l4.44,13.52h.06l4.8-13.52h2.59l4.77,13.52h.06l4.52-13.52h2.43l-5.73,16.28h-2.51l-4.82-13.8h-.06l-4.85,13.8h-2.54l-5.71-16.28Z"/>
        <path class="cls-4" d="M80.99,15.94h12.27v1.79h-9.95v5.11h9.29v1.79h-9.29v5.8h10.45v1.79h-12.76V15.94Z"/>
        <path class="cls-4" d="M105.01,15.94h4.99c.94,0,1.87,.05,2.8,.14,.93,.09,1.76,.29,2.5,.6,.73,.31,1.33,.75,1.79,1.34,.46,.59,.69,1.39,.69,2.4,0,1.2-.43,2.16-1.3,2.9s-2.06,1.2-3.58,1.4l5.54,7.5h-2.84l-5.29-7.31h-2.98v7.31h-2.32V15.94Zm2.32,7.18h2.07c.64,0,1.31-.01,2-.05,.69-.03,1.32-.13,1.9-.3,.58-.17,1.06-.43,1.43-.79,.38-.36,.57-.88,.57-1.55,0-.58-.14-1.05-.41-1.4-.28-.35-.64-.62-1.09-.82-.45-.19-.96-.32-1.52-.38-.56-.06-1.13-.09-1.7-.09h-3.25v5.38Z"/>
        <path class="cls-4" d="M121.85,15.94h12.27v1.79h-9.95v5.11h9.29v1.79h-9.29v5.8h10.45v1.79h-12.76V15.94Z"/>
        <path class="cls-4" d="M138.2,15.94h5.79c.9,0,1.76,.07,2.58,.22,.82,.15,1.54,.39,2.18,.74,.63,.35,1.14,.81,1.52,1.38,.38,.58,.56,1.29,.56,2.13,0,.89-.2,1.62-.61,2.21s-.92,1.04-1.56,1.38c-.63,.34-1.33,.58-2.08,.71-.75,.14-1.47,.21-2.15,.21h-3.92v7.31h-2.32V15.94Zm2.32,7.18h3.92c1.16,0,2.1-.22,2.83-.66,.73-.44,1.09-1.12,1.09-2.04s-.36-1.6-1.09-2.04c-.73-.44-1.67-.66-2.83-.66h-3.92v5.38Z"/>
        <path class="cls-4" d="M158.85,15.94h2.18l8.3,16.28h-2.7l-1.99-4h-9.76l-2.01,4h-2.62l8.6-16.28Zm1.05,2.48h-.06l-4.05,8h7.97l-3.86-8Z"/>
        <path class="cls-4" d="M171.91,15.94h2.32v16.28h-2.32V15.94Z"/>
        <path class="cls-4" d="M179.08,15.94h4.99c.94,0,1.87,.05,2.8,.14,.93,.09,1.76,.29,2.5,.6,.73,.31,1.33,.75,1.79,1.34,.46,.59,.69,1.39,.69,2.4,0,1.2-.43,2.16-1.29,2.9-.86,.74-2.06,1.2-3.58,1.4l5.54,7.5h-2.84l-5.29-7.31h-2.98v7.31h-2.32V15.94Zm2.32,7.18h2.07c.64,0,1.31-.01,2-.05,.69-.03,1.32-.13,1.9-.3s1.06-.43,1.43-.79c.38-.36,.57-.88,.57-1.55,0-.58-.14-1.05-.41-1.4-.28-.35-.64-.62-1.09-.82s-.96-.32-1.52-.38c-.56-.06-1.13-.09-1.7-.09h-3.25v5.38Z"/>
        <path class="cls-4" d="M203.59,15.94h2.32v6.9h10.42v-6.9h2.32v16.28h-2.32v-7.59h-10.42v7.59h-2.32V15.94Z"/>
        <path class="cls-4" d="M232.56,32.63c-1.49,0-2.85-.21-4.09-.64-1.24-.43-2.32-1.02-3.23-1.78-.91-.76-1.62-1.66-2.12-2.71-.51-1.05-.76-2.19-.76-3.42s.25-2.36,.76-3.42c.5-1.05,1.21-1.96,2.12-2.71,.91-.76,1.98-1.35,3.23-1.78,1.24-.43,2.6-.64,4.09-.64s2.85,.21,4.09,.64c1.24,.43,2.32,1.02,3.23,1.78,.91,.76,1.62,1.66,2.12,2.71,.51,1.05,.76,2.19,.76,3.42s-.25,2.37-.76,3.42-1.21,1.96-2.12,2.71c-.91,.76-1.99,1.35-3.23,1.78-1.24,.43-2.61,.64-4.09,.64Zm0-1.79c1.14,0,2.18-.18,3.13-.53,.95-.35,1.76-.84,2.44-1.45s1.21-1.33,1.58-2.15,.57-1.7,.57-2.63-.19-1.81-.57-2.63-.91-1.54-1.58-2.15-1.49-1.1-2.44-1.45c-.95-.35-1.99-.53-3.13-.53s-2.18,.18-3.13,.53c-.95,.35-1.76,.84-2.44,1.45s-1.21,1.33-1.58,2.15-.57,1.7-.57,2.63,.19,1.81,.57,2.63,.91,1.54,1.58,2.15,1.49,1.1,2.44,1.45c.95,.35,1.99,.53,3.13,.53Z"/>
        <path class="cls-4" d="M261.12,26.01c0,.89-.13,1.73-.4,2.53-.27,.8-.69,1.5-1.27,2.1-.58,.61-1.34,1.09-2.27,1.45s-2.08,.54-3.42,.54-2.48-.18-3.42-.54c-.94-.36-1.7-.84-2.27-1.45-.58-.61-1-1.31-1.27-2.1-.27-.8-.4-1.64-.4-2.53V15.94h2.32v9.8c0,.66,.08,1.3,.25,1.91,.17,.61,.44,1.16,.83,1.63,.39,.48,.9,.86,1.54,1.14,.64,.28,1.45,.43,2.43,.43s1.78-.14,2.43-.43c.64-.28,1.16-.66,1.54-1.14,.39-.47,.66-1.02,.83-1.63,.17-.61,.25-1.25,.25-1.91V15.94h2.32v10.07Z"/>
        <path class="cls-4" d="M275.15,18.81c-.39-.52-.9-.9-1.54-1.14-.64-.24-1.31-.36-2.01-.36-.51,0-1.02,.05-1.52,.16s-.94,.27-1.34,.48c-.4,.21-.71,.5-.95,.85-.24,.35-.36,.77-.36,1.24,0,.37,.07,.69,.21,.98,.14,.28,.36,.54,.67,.77,.31,.23,.74,.44,1.27,.64s1.19,.4,1.96,.6c.75,.2,1.48,.41,2.19,.64,.71,.23,1.33,.52,1.88,.87s.97,.79,1.3,1.32c.32,.53,.48,1.19,.48,1.99s-.19,1.52-.58,2.12c-.39,.6-.9,1.09-1.53,1.48-.63,.39-1.36,.68-2.19,.87s-1.68,.29-2.56,.29c-.57,0-1.14-.04-1.71-.13-.57-.08-1.12-.21-1.64-.39-.52-.18-1.02-.41-1.47-.69-.46-.28-.86-.63-1.19-1.05l1.98-1.36c.42,.6,1.01,1.05,1.76,1.36,.75,.31,1.55,.46,2.4,.46,.5,0,1-.06,1.5-.18,.51-.12,.96-.3,1.37-.54,.4-.24,.73-.53,.99-.89,.26-.35,.39-.76,.39-1.22,0-.51-.1-.92-.3-1.23-.2-.31-.51-.59-.94-.82-.42-.23-.96-.44-1.6-.62-.64-.18-1.4-.4-2.26-.64-.7-.18-1.34-.39-1.93-.63-.59-.24-1.1-.53-1.53-.87-.43-.35-.77-.76-1.02-1.24-.25-.48-.37-1.06-.37-1.74,0-.78,.18-1.46,.55-2.05,.37-.58,.86-1.07,1.49-1.46s1.33-.69,2.12-.89,1.62-.3,2.48-.3c1.1,0,2.11,.14,3.02,.43,.91,.28,1.72,.78,2.44,1.48l-1.9,1.38Z"/>
        <path class="cls-4" d="M281.22,15.94h12.27v1.79h-9.95v5.11h9.29v1.79h-9.29v5.8h10.45v1.79h-12.76V15.94Z"/>
      </g>
    </g>
    <g>
      <path class="cls-1" d="M40.14,14.63h-2.38v-2.86c0-1.02-.93-1.85-2.07-1.85H8.22c-1.14,0-2.07,.83-2.07,1.85v1.18h-.75c-.22,0-.4,.16-.4,.36v3.53c0,.2,.18,.36,.4,.36h.75v1.18c0,1.02,.93,1.85,2.07,1.85h27.47c1.14,0,2.07-.83,2.07-1.85v-2.86h2.27v6.32l-17.82,2.57c-.43,.06-.75,.39-.75,.79v2.67h-1.79c-.73,0-1.33,.53-1.33,1.19v11.06c0,.65,.59,1.19,1.33,1.19h4.59c.73,0,1.33-.53,1.33-1.19v-11.06c0-.65-.59-1.19-1.33-1.19h-1.8v-2.59l17.82-2.57c.43-.06,.75-.39,.75-.79v-6.49c0-.44-.4-.8-.89-.8Zm-3.38,3.75c0,.53-.48,.95-1.07,.95H8.22c-.59,0-1.07-.43-1.07-.95v-6.61c0-.53,.48-.95,1.07-.95h27.47c.59,0,1.07,.43,1.07,.95v6.61h0Zm-12.51,22.02h-4.59c-.18,0-.33-.13-.33-.29v-2.19h5.25v2.19c0,.16-.15,.29-.33,.29Zm.33-11.35v7.98h-5.25v-7.98c0-.16,.15-.29,.33-.29h4.59c.18,0,.33,.13,.33,.29Z"/>
      <path class="cls-3" d="M40.14,14.63h-2.38v-2.86c0-1.02-.93-1.85-2.07-1.85H8.22c-1.14,0-2.07,.83-2.07,1.85v1.18h-.75c-.22,0-.4,.16-.4,.36v3.53c0,.2,.18,.36,.4,.36h.75v1.18c0,1.02,.93,1.85,2.07,1.85h27.47c1.14,0,2.07-.83,2.07-1.85v-2.86h2.27v6.32l-17.82,2.57c-.43,.06-.75,.39-.75,.79v2.67h-1.79c-.73,0-1.33,.53-1.33,1.19v11.06c0,.65,.59,1.19,1.33,1.19h4.59c.73,0,1.33-.53,1.33-1.19v-11.06c0-.65-.59-1.19-1.33-1.19h-1.8v-2.59l17.82-2.57c.43-.06,.75-.39,.75-.79v-6.49c0-.44-.4-.8-.89-.8Zm-3.38,3.75c0,.53-.48,.95-1.07,.95H8.22c-.59,0-1.07-.43-1.07-.95v-6.61c0-.53,.48-.95,1.07-.95h27.47c.59,0,1.07,.43,1.07,.95v6.61h0Zm-12.51,22.02h-4.59c-.18,0-.33-.13-.33-.29v-2.19h5.25v2.19c0,.16-.15,.29-.33,.29Zm.33-11.35v7.98h-5.25v-7.98c0-.16,.15-.29,.33-.29h4.59c.18,0,.33,.13,.33,.29Z"/>
    </g>
  </g>
</svg>